<svg width="14" height="14" viewBox="0 0 14 14" fill="none" xmlns="http://www.w3.org/2000/svg">
<path d="M1.74147 0.273438C1.85558 0.21875 2.08726 0.134896 2.26016 0.0875C2.56784 0.00366989 2.58175 0.00364584 4.68931 3.13524e-06L4.69112 0C6.70712 0 6.81432 0.00364583 6.93881 0.0692708C7.00797 0.109375 7.10825 0.185937 7.15666 0.244271C7.20853 0.298958 7.27769 0.404688 7.30881 0.473958C7.35377 0.565104 7.36414 0.663542 7.35722 0.827604C7.34685 1.0026 7.32264 1.08281 7.23965 1.21042C7.18087 1.29427 7.0633 1.40729 6.82469 1.54948L2.56792 1.58594L2.30858 1.72083C2.14259 1.80469 1.9939 1.91771 1.8867 2.03802C1.79679 2.1401 1.67231 2.33333 1.49941 2.71615V11.2875L1.62735 11.5609C1.71034 11.7359 1.81408 11.8927 1.9282 12.0021C2.02502 12.1005 2.20829 12.2318 2.57138 12.4141H10.7011L10.9604 12.2792C11.1264 12.1917 11.2751 12.0823 11.3789 11.962C11.4722 11.8599 11.5967 11.6667 11.7696 11.2839L11.8042 6.90885L11.8906 6.74479C11.939 6.65729 12.0462 6.53333 12.1292 6.47135C12.2433 6.3875 12.3229 6.35833 12.475 6.35104C12.5926 6.3401 12.7205 6.35833 12.807 6.39115C12.8831 6.42396 13.0041 6.5151 13.0733 6.59531C13.1459 6.67917 13.222 6.80677 13.2427 6.87969C13.2669 6.97448 13.2738 7.73281 13.2669 9.22396L13.2667 9.25815C13.2531 11.3757 13.2527 11.4383 13.177 11.6922C13.1355 11.838 13.0594 12.0531 13.011 12.1661C12.9626 12.2828 12.8554 12.4833 12.7724 12.6146C12.6894 12.7458 12.5234 12.9573 12.4024 13.0813C12.2848 13.2089 12.0843 13.3839 11.9598 13.4714C11.8353 13.5589 11.6417 13.6755 11.5275 13.7266C11.4134 13.7812 11.1714 13.8651 10.6631 14H2.60596L2.26016 13.9089C2.06997 13.8578 1.80371 13.7594 1.67231 13.6901C1.5409 13.6245 1.35417 13.5078 1.25735 13.4385C1.16398 13.3656 0.984169 13.2052 0.866598 13.0776C0.745569 12.9536 0.579586 12.7458 0.496594 12.6146C0.413603 12.4833 0.306405 12.2828 0.257994 12.1661C0.209582 12.0531 0.133506 11.838 0.0124773 11.4297L0.00210332 7.16406C-0.00481264 4.2474 0.0055613 2.81823 0.0297671 2.64323C0.050515 2.50469 0.109301 2.25677 0.16117 2.09635C0.21304 1.93594 0.323695 1.68073 0.410145 1.53125C0.493136 1.38177 0.679867 1.13021 0.825102 0.969792C0.966879 0.813021 1.18473 0.6125 1.30922 0.528646C1.43371 0.441146 1.62735 0.324479 1.74147 0.273438Z" fill="url(#paint0_linear_221_1001)"/>
<path d="M12.8934 0.875C12.9038 0.875 12.973 0.849479 13.0491 0.820312C13.1251 0.791146 13.215 0.769271 13.2462 0.765625C13.2807 0.765625 13.3741 0.783854 13.4536 0.802083C13.5366 0.823958 13.6646 0.893229 13.7372 0.958854C13.8133 1.02083 13.9032 1.14115 13.9378 1.22135C13.9689 1.30156 14 1.4474 14 1.54948C14 1.65156 13.9689 1.7974 13.9343 1.8776C13.8893 1.97969 12.8035 3.14635 10.4348 5.63646C7.12554 9.11458 6.99068 9.25313 6.82469 9.29688C6.68638 9.33698 6.61376 9.33698 6.46161 9.30052C6.27148 9.25314 6.26451 9.24584 4.70304 7.61047L4.7015 7.60885C3.65027 6.50052 3.11428 5.91354 3.06933 5.8151C3.03129 5.73125 3.00363 5.58542 3.00363 5.47604C3.00363 5.35938 3.02783 5.23542 3.06933 5.14792C3.10737 5.075 3.17999 4.96927 3.23531 4.91458C3.28718 4.8599 3.39092 4.79063 3.46008 4.76146C3.5327 4.72865 3.65373 4.70312 3.7298 4.70312C3.80588 4.70312 3.92691 4.72865 3.99607 4.75781C4.08598 4.79792 4.52168 5.22813 6.63451 7.45573L9.75706 4.16354C11.4722 2.35521 12.8831 0.875 12.8934 0.875Z" fill="url(#paint1_linear_221_1001)"/>
<defs>
<linearGradient id="paint0_linear_221_1001" x1="2.05372" y1="2.1405" x2="17.8182" y2="16.0826" gradientUnits="userSpaceOnUse">
<stop stop-color="#5850FF"/>
<stop offset="1" stop-color="#33B4FF"/>
</linearGradient>
<linearGradient id="paint1_linear_221_1001" x1="2.05372" y1="2.1405" x2="17.8182" y2="16.0826" gradientUnits="userSpaceOnUse">
<stop stop-color="#5850FF"/>
<stop offset="1" stop-color="#33B4FF"/>
</linearGradient>
</defs>
</svg>
