<svg width="23" height="16" viewBox="0 0 23 16" fill="none" xmlns="http://www.w3.org/2000/svg">
<path d="M4.6699 0.0451012C3.83127 0.148674 2.81054 0.562964 2.11568 1.07612C1.15725 1.7823 0.45759 2.81802 0.141308 3.99969C0.0071272 4.49873 -0.0455866 5.61449 0.0454645 6.15118C0.217982 7.20103 0.716367 8.17556 1.47832 8.95235C2.19235 9.68207 2.87763 10.0822 3.88878 10.3694L4.25777 10.473L3.90794 11.1792C3.47665 12.0313 2.96389 12.8034 2.27861 13.6414C1.99108 13.985 1.7323 14.3428 1.69397 14.4276C1.51666 14.8419 1.68438 15.4774 2.0438 15.7411C2.23069 15.887 2.57093 16 2.79616 16C3.05015 16 4.20506 15.5904 4.90951 15.2515C8.05316 13.7402 10.0227 11.0991 10.5882 7.64357C10.7847 6.45719 10.8278 5.40263 10.7128 4.65409C10.5355 3.50537 10.0179 2.46494 9.21287 1.64106C8.71448 1.1232 8.31673 0.83602 7.68896 0.534718C6.71615 0.0686398 5.76251 -0.0867195 4.6699 0.0451012ZM6.29923 1.66931C7.59791 2.01298 8.60426 3.01575 9.04035 4.40457C9.16015 4.79061 9.16974 4.87535 9.16494 5.66627C9.16015 7.76126 8.5803 9.67736 7.4829 11.198C7.07556 11.7676 6.18901 12.6386 5.61875 13.0341C5.20183 13.3259 4.2386 13.8815 4.15235 13.8815C4.13318 13.8815 4.26256 13.6649 4.44467 13.3966C4.88075 12.7563 5.30726 11.9983 5.58999 11.3628C5.80085 10.8873 5.82002 10.8167 5.82002 10.4683C5.82002 10.0257 5.70501 9.72444 5.42227 9.44197C5.16828 9.18304 5.01493 9.103 4.50217 8.96177C3.60604 8.71696 2.93993 8.29325 2.39362 7.62474C1.55499 6.59843 1.34414 5.15782 1.84732 3.90554C2.31216 2.75211 3.42873 1.85291 4.67948 1.61752C5.12995 1.53278 5.88231 1.55632 6.29923 1.66931Z" fill="#2E4EFE"/>
<path d="M16.9284 0.0401297C15.6393 0.219028 14.5946 0.751015 13.6841 1.68788C11.7193 3.71696 11.7385 6.91359 13.7224 8.98033C14.2927 9.57352 15.2799 10.1479 16.0802 10.355C16.3006 10.4115 16.4827 10.4727 16.4827 10.4868C16.4827 10.5669 15.8406 11.7956 15.601 12.177C15.2895 12.6713 14.7815 13.3492 14.3071 13.9047C14.0771 14.1778 13.9668 14.352 13.9093 14.5356C13.7895 14.9546 13.9045 15.3924 14.216 15.6749C14.6329 16.0609 15.0547 16.0751 15.9795 15.7455C19.9858 14.3002 22.425 11.2354 22.9234 7.00774C23.0336 6.07559 23.024 4.95042 22.8994 4.35723C22.4681 2.26223 20.8867 0.623902 18.8165 0.134286C18.366 0.0260057 17.3836 -0.0257797 16.9284 0.0401297ZM18.5194 1.66434C18.9459 1.76791 19.6264 2.11629 19.981 2.40818C20.5992 2.90721 21.0976 3.69813 21.3036 4.50317C21.4953 5.25172 21.457 6.48988 21.1982 7.75629C20.7286 10.0678 19.5018 11.9416 17.6568 13.1703C17.1872 13.4857 16.4348 13.9 16.4013 13.8624C16.3917 13.853 16.5019 13.6788 16.6409 13.4763C17.0242 12.9302 17.4699 12.1487 17.767 11.5037C18.0066 10.9906 18.0306 10.9011 18.0545 10.5292C18.0737 10.1714 18.0641 10.0961 17.9587 9.87012C17.7143 9.35225 17.4364 9.14982 16.66 8.92855C15.5291 8.60841 14.6952 7.93048 14.2064 6.93713C13.9429 6.40985 13.8518 6.07088 13.8135 5.50123C13.7464 4.45609 14.1441 3.46274 14.9444 2.67182C15.5435 2.08334 16.2096 1.73966 17.0194 1.59843C17.3597 1.53722 18.16 1.57018 18.5194 1.66434Z" fill="#2E4EFE"/>
</svg>
